<svg width="20" height="20" viewBox="0 0 20 20" fill="none" xmlns="http://www.w3.org/2000/svg">
<g clip-path="url(#clip0_327_4230)">
<path d="M20 10C20 15.5228 15.5228 20 10 20C4.47719 20 0 15.5228 0 10C0 10.0023 10 0.00113281 10 0C15.5228 0 20 4.47719 20 10Z" fill="#0052B4"/>
<path d="M9.97314 10.0003H9.99996C9.99996 9.99124 9.99996 9.98255 9.99996 9.97351C9.99103 9.98247 9.98211 9.99139 9.97314 10.0003Z" fill="#F0F0F0"/>
<path d="M9.99999 5.21818C9.99999 3.45861 9.99999 2.3056 9.99999 0.000793457H9.99831C4.47625 0.00169189 0 4.47845 0 10.0008H5.21738V7.06278L8.15535 10.0008H9.97328C9.98222 9.99185 9.99113 9.98294 10 9.974C10 9.30028 10 8.69915 10 8.15618L7.06203 5.21818H9.99999Z" fill="#F0F0F0"/>
<path d="M5.05904 1.30475C3.49502 2.19533 2.19479 3.49557 1.3042 5.05959V10.0004H3.91291V3.9135V3.91346H9.99987C9.99987 3.09069 9.99987 2.30686 9.99987 1.30475H5.05904Z" fill="#D80027"/>
<path d="M9.99986 8.77073L6.44701 5.21791H5.21729C5.21729 5.21787 5.21729 5.21791 5.21729 5.21791L9.99982 10.0005H9.99986C9.99986 10.0005 9.99986 9.1526 9.99986 8.77073Z" fill="#D80027"/>
<path d="M6.03107 11.7387L6.5799 12.8863L7.81924 12.5998L7.26424 13.7444L8.26088 14.5348L7.01998 14.8145L7.02346 16.0865L6.03107 15.2907L5.03873 16.0865L5.04221 14.8145L3.80127 14.5348L4.79795 13.7444L4.24287 12.5998L5.48228 12.8863L6.03107 11.7387Z" fill="#F0F0F0"/>
<path d="M14.9723 13.9128L15.2467 14.4866L15.8664 14.3434L15.5889 14.9157L16.0872 15.3109L15.4668 15.4507L15.4685 16.0867L14.9723 15.6888L14.4761 16.0867L14.4779 15.4507L13.8574 15.3109L14.3557 14.9157L14.0782 14.3434L14.6979 14.4866L14.9723 13.9128Z" fill="#F0F0F0"/>
<path d="M12.4191 7.82617L12.6935 8.4L13.3132 8.25672L13.0357 8.82902L13.534 9.22422L12.9136 9.36406L12.9153 10.0001L12.4191 9.60215L11.9229 10.0001L11.9246 9.36406L11.3042 9.22422L11.8025 8.82902L11.525 8.25672L12.1447 8.4L12.4191 7.82617Z" fill="#F0F0F0"/>
<path d="M14.9723 4.34802L15.2467 4.92185L15.8664 4.77861L15.5889 5.35091L16.0872 5.74607L15.4668 5.88595L15.4685 6.52197L14.9723 6.12404L14.4761 6.52197L14.4779 5.88595L13.8574 5.74607L14.3557 5.35091L14.0782 4.77861L14.6979 4.92185L14.9723 4.34802Z" fill="#F0F0F0"/>
<path d="M17.2018 6.95648L17.4762 7.53031L18.0959 7.38703L17.8184 7.95933L18.3167 8.35453L17.6962 8.49441L17.698 9.13039L17.2018 8.7325L16.7057 9.13039L16.7073 8.49441L16.0869 8.35453L16.5852 7.95933L16.3077 7.38703L16.9274 7.53031L17.2018 6.95648Z" fill="#F0F0F0"/>
<path d="M15.6077 10.0003L15.8235 10.6646H16.522L15.9569 11.0752L16.1728 11.7394L15.6077 11.3289L15.0426 11.7394L15.2584 11.0752L14.6934 10.6646H15.3918L15.6077 10.0003Z" fill="#F0F0F0"/>
</g>
<defs>
<clipPath id="clip0_327_4230">
<rect width="20" height="20" fill="white"/>
</clipPath>
</defs>
</svg>
